Coordinates
version=1
nRows=35
nColumns=18
inDegrees=yes

Units are S.I. units (second, meters, Newtons, ...)
If the header above contains a line with 'inDegrees', this indicates whether rotational values are in degrees (yes) or radians (no).

endheader
time	ground_thorax_rot_x	ground_thorax_rot_y	ground_thorax_rot_z	ground_thorax_tx	ground_thorax_ty	ground_thorax_tz	clav_prot	clav_elev	scapula_abduction	scapula_elevation	scapula_upward_rot	scapula_winging	plane_elv	shoulder_elv	axial_rot	elbow_flexion	pro_sup
      1.77000000	     -3.64119960	     -4.64528664	     -8.41500084	     -0.00442023	      0.00433297	     -0.00848581	    -30.83227678	      7.24080811	      3.22394333	     -3.09718645	     57.70487685	     -7.07791374	     50.12000295	     87.02715994	    -15.98574893	      0.00000000	     34.32000000
      1.78000000	     -3.70826859	     -4.71903963	     -8.40856825	     -0.00442770	      0.00438750	     -0.00848133	    -31.00072789	      7.36862286	      3.06638827	     -3.02690870	     57.91240524	     -7.16021224	     49.94517983	     87.49944502	    -15.90537842	      0.00000000	     34.32000000
      1.79000000	     -3.70844572	     -4.71835785	     -8.40450603	     -0.00444181	      0.00439452	     -0.00849403	    -31.16251598	      7.52634200	      2.93613334	     -2.93610960	     58.14863483	     -7.24926630	     49.72203541	     88.01567953	    -15.79665530	      0.00000000	     34.32000000
      1.80000000	     -3.67712065	     -4.61470812	     -8.36853116	     -0.00440746	      0.00437362	     -0.00853921	    -31.33444463	      7.58661305	      2.80863172	     -2.91284055	     58.37562996	     -7.31803194	     49.42439999	     88.46306085	    -15.66665152	      0.00000000	     34.32000000
      1.81000000	     -3.64419749	     -4.46909346	     -8.36171110	     -0.00432515	      0.00428823	     -0.00864012	    -31.52586607	      7.51173370	      2.67881560	     -2.98375834	     58.59365305	     -7.36043384	     49.11534660	     88.85443720	    -15.52517014	      0.00000000	     34.32000000
      1.82000000	     -3.66860836	     -4.01760537	     -8.40791234	     -0.00427304	      0.00437327	     -0.00878170	    -32.06130581	      7.19914570	      1.91881148	     -3.24117131	     58.69621199	     -7.43890251	     49.22871210	     89.18533837	    -14.68803576	      0.00000000	     34.32000000
      1.83000000	     -3.64859975	     -4.01015418	     -8.39760812	     -0.00421721	      0.00435366	     -0.00879026	    -32.22782646	      7.12245707	      1.82683680	     -3.31097202	     58.90602131	     -7.47493622	     48.96591870	     89.52233426	    -14.57227671	      0.00000000	     34.32000000
      1.84000000	     -3.63617181	     -3.95873997	     -8.35140153	     -0.00425956	      0.00440202	     -0.00874662	    -32.38554162	      7.08676915	      1.74485294	     -3.35173853	     59.12343423	     -7.51910212	     48.64233036	     89.86627026	    -14.48236525	      0.00000000	     34.32000000
      1.85000000	     -3.62298930	     -3.84661075	     -8.32130235	     -0.00427946	      0.00443206	     -0.00871395	    -32.55377573	      7.05266365	      1.69561557	     -3.39305299	     59.40213207	     -7.56869262	     48.28689978	     90.24544115	    -14.39858665	      0.00000000	     34.32000000
      1.86000000	     -3.64065339	     -3.71556353	     -8.29639815	     -0.00425435	      0.00446163	     -0.00879866	    -32.73498074	      7.04797019	      1.64482775	     -3.41518344	     59.71585751	     -7.63076587	     47.95807330	     90.61110167	    -14.33270228	      0.00000000	     34.32000000
      1.87000000	     -3.63786972	     -3.63181817	     -8.32145944	     -0.00413566	      0.00447723	     -0.00890807	    -32.97066417	      7.02796866	      1.49004131	     -3.45113307	     60.01324905	     -7.70561086	     47.73704725	     90.95367051	    -14.28610125	      0.00000000	     34.32000000
      1.88000000	     -3.70810754	     -3.73051434	     -8.14749119	     -0.00410287	      0.00458662	     -0.00889848	    -33.06484581	      7.00468309	      1.42256931	     -3.47572858	     60.12011445	     -7.73146238	     47.64601967	     91.07795530	    -14.27120895	      0.00000000	     34.32000000
      1.89000000	     -3.60378748	     -3.61218277	     -8.28819854	     -0.00407281	      0.00448215	     -0.00886075	    -33.30382973	      6.99848308	      1.16806045	     -3.50041183	     60.30949844	     -7.81008005	     47.27434526	     91.51280776	    -14.19984731	      0.00000000	     34.32000000
      1.90000000	     -3.62345516	     -3.55125268	     -8.26796608	     -0.00409050	      0.00455281	     -0.00877192	    -33.48059793	      7.09046130	      0.96664051	     -3.45227904	     60.46639541	     -7.89501001	     46.96052958	     91.83469742	    -14.16284789	      0.00000000	     34.32000000
      1.91000000	     -3.47570171	     -3.18929902	     -8.22106451	     -0.00420004	      0.00457931	     -0.00869937	    -33.96008582	      7.43057188	      0.26307836	     -3.25755219	     60.73486075	     -8.15010933	     46.94575226	     92.29113846	    -14.40663945	      0.00000000	     34.32000000
      1.92000000	     -3.59131518	     -3.27358094	     -8.01760199	     -0.00421860	      0.00471678	     -0.00867931	    -34.06391667	      7.40591290	      0.21619913	     -3.28386150	     60.88485358	     -8.18193430	     46.86197775	     92.44970260	    -14.39158694	      0.00000000	     34.32000000
      1.93000000	     -3.47697092	     -3.14398801	     -8.15162447	     -0.00420415	      0.00460095	     -0.00873085	    -34.31173643	      7.21099369	      0.11867217	     -3.43939724	     61.21309684	     -8.22156117	     46.53221768	     92.83735116	    -14.38109212	      0.00000000	     34.32000000
      1.94000000	     -3.51701766	     -2.83533114	     -8.23793374	     -0.00411704	      0.00465441	     -0.00877655	    -34.73820410	      6.87892046	     -0.30112300	     -3.70180575	     61.47715135	     -8.28628408	     46.42268017	     93.01829157	    -14.80356935	      0.00000000	     34.32000000
      1.95000000	     -3.56877621	     -2.76872837	     -8.11410364	     -0.00401268	      0.00476929	     -0.00889942	    -34.84427833	      6.87237536	     -0.32592377	     -3.71534795	     61.66449458	     -8.32457956	     46.24543801	     93.22443423	    -14.78042069	      0.00000000	     34.32000000
      1.96000000	     -3.50565441	     -2.30394054	     -8.22326210	     -0.00395746	      0.00463180	     -0.00910400	    -35.43215055	      7.00258478	     -0.97601704	     -3.67231452	     62.14091727	     -8.58387988	     46.16208566	     93.45870416	    -15.04700433	      0.00000000	     34.32000000
      1.97000000	     -3.65540047	     -2.37415310	     -8.03873371	     -0.00398491	      0.00484295	     -0.00917490	    -35.53191460	      6.99291252	     -1.00963867	     -3.68681645	     62.30313313	     -8.61989071	     46.10300060	     93.62157332	    -15.03328913	      0.00000000	     34.32000000
      1.98000000	     -3.47139840	     -2.13455640	     -8.15699018	     -0.00399379	      0.00472885	     -0.00906715	    -36.00765213	      7.06516150	     -1.39916336	     -3.67339603	     62.83999412	     -8.82684035	     45.89436234	     93.81807627	    -15.54054549	      0.00000000	     34.32000000
      1.99000000	     -3.44890520	     -2.05565064	     -8.09734932	     -0.00407521	      0.00477030	     -0.00896755	    -36.14030854	      7.00209167	     -1.40637384	     -3.72611842	     63.08355612	     -8.86109911	     45.67610816	     93.97928906	    -15.57465731	      0.00000000	     34.32000000
      2.00000000	     -3.55993835	     -2.08547373	     -7.95792126	     -0.00405940	      0.00477373	     -0.00890848	    -36.21166726	      6.98642372	     -1.41385946	     -3.74180578	     63.21654663	     -8.88464655	     45.64990783	     94.10236168	    -15.56689688	      0.00000000	     34.32000000
      2.01000000	     -3.54861356	     -1.97549105	     -7.89782716	     -0.00415230	      0.00495750	     -0.00913777	    -36.37905165	      6.90838556	     -1.37359194	     -3.80616460	     63.58464534	     -8.92725875	     45.61836208	     94.32627009	    -15.59112375	      0.00000000	     34.32000000
      2.02000000	     -3.75236441	     -2.00060131	     -7.76735878	     -0.00418603	      0.00499903	     -0.00928695	    -36.46806771	      6.91532815	     -1.36480869	     -3.80680572	     63.78174451	     -8.96370960	     45.61926979	     94.49324706	    -15.58350338	      0.00000000	     34.32000000
      2.03000000	     -3.49491045	     -1.82574733	     -8.02764424	     -0.00400401	      0.00486424	     -0.00911276	    -37.10239972	      6.99575646	     -1.60678683	     -3.78926585	     64.82718477	     -9.23741988	     45.47327106	     94.35422944	    -16.07176301	      0.00000000	     34.32000000
      2.04000000	     -3.46602515	     -1.68813370	     -8.00103737	     -0.00406786	      0.00489777	     -0.00908816	    -37.25609056	      6.91993398	     -1.66324777	     -3.84981460	     65.05081656	     -9.27661688	     45.36621437	     94.58772230	    -16.21954237	      0.00000000	     34.32000000
      2.05000000	     -3.49825638	     -1.71875869	     -7.89100241	     -0.00406755	      0.00482312	     -0.00892228	    -37.30465863	      6.89349424	     -1.68200657	     -3.87061007	     65.11954841	     -9.28830648	     45.32942599	     94.66243250	    -16.21472210	      0.00000000	     34.32000000
      2.06000000	     -3.44536326	     -1.66563359	     -7.78335206	     -0.00412869	      0.00494400	     -0.00890472	    -37.35406331	      6.81630048	     -1.66845728	     -3.92582135	     65.21233655	     -9.28460309	     45.28463824	     94.78125605	    -16.20989716	      0.00000000	     34.32000000
      2.07000000	     -3.50775627	     -1.69176465	     -7.68742666	     -0.00415094	      0.00504559	     -0.00888657	    -37.40997838	      6.79969643	     -1.68659841	     -3.94011776	     65.30041235	     -9.30188701	     45.24239522	     94.87899437	    -16.20150069	      0.00000000	     34.32000000
      2.08000000	     -3.45402787	     -1.51736345	     -7.79122634	     -0.00414879	      0.00502327	     -0.00910654	    -37.56653353	      6.78420177	     -1.75938599	     -3.95877690	     65.53066773	     -9.36008948	     44.88197661	     95.22180703	    -16.17708216	      0.00000000	     34.32000000
      2.09000000	     -3.56465860	     -1.55643630	     -7.66941337	     -0.00413806	      0.00516145	     -0.00909683	    -37.63971145	      6.77502607	     -1.78074706	     -3.96850289	     65.65311729	     -9.38635944	     44.84124806	     95.34186623	    -16.16933739	      0.00000000	     34.32000000
      2.10000000	     -3.49679787	     -1.37677646	     -7.85310762	     -0.00403890	      0.00499031	     -0.00928351	    -37.91833414	      6.73052822	     -1.94381655	     -4.01329077	     66.01616627	     -9.48676060	     44.53664534	     95.59259777	    -16.24414749	      0.00000000	     34.32000000
      2.11000000	     -3.57511479	     -1.42614052	     -7.74991861	     -0.00407764	      0.00498810	     -0.00944209	    -37.98303221	      6.71275438	     -1.97214474	     -4.02848814	     66.10965085	     -9.50762140	     44.51875305	     95.67792383	    -16.24351626	      0.00000000	     34.32000000
